<svg width="21" height="21" viewBox="0 0 21 21" fill="none" xmlns="http://www.w3.org/2000/svg">
<path d="M9.00007 12.6L20.0001 1.59998M9.00007 12.6L12.5001 19.6C12.5439 19.6957 12.6144 19.7768 12.703 19.8337C12.7917 19.8906 12.8948 19.9208 13.0001 19.9208C13.1054 19.9208 13.2085 19.8906 13.2971 19.8337C13.3858 19.7768 13.4562 19.6957 13.5001 19.6L20.0001 1.59998M9.00007 12.6L2.00007 9.09998C1.90433 9.0561 1.8232 8.98566 1.76632 8.89703C1.70944 8.80839 1.6792 8.70529 1.6792 8.59998C1.6792 8.49466 1.70944 8.39156 1.76632 8.30292C1.8232 8.21429 1.90433 8.14385 2.00007 8.09998L20.0001 1.59998" stroke="#7F6DF2" stroke-width="2" stroke-linecap="round" stroke-linejoin="round"/>
</svg>
