<svg width="21" height="21" viewBox="0 0 21 21" fill="none" xmlns="http://www.w3.org/2000/svg">
<path d="M18.8999 11.26C18.7396 11.0775 18.6512 10.8429 18.6512 10.6C18.6512 10.3571 18.7396 10.1225 18.8999 9.93999L20.1799 8.49999C20.3209 8.34266 20.4085 8.1447 20.4301 7.9345C20.4516 7.7243 20.4061 7.51268 20.2999 7.32999L18.2999 3.86999C18.1948 3.68751 18.0348 3.54287 17.8426 3.45668C17.6505 3.37049 17.4361 3.34715 17.2299 3.38999L15.3499 3.76999C15.1107 3.81942 14.8616 3.77958 14.6498 3.65799C14.4379 3.5364 14.2779 3.34148 14.1999 3.10999L13.5899 1.27999C13.5228 1.08137 13.395 0.908858 13.2245 0.786835C13.0541 0.664812 12.8495 0.599452 12.6399 0.599993H8.6399C8.42183 0.588611 8.20603 0.648919 8.02546 0.771707C7.84489 0.894495 7.70948 1.07301 7.6399 1.27999L7.0799 3.10999C7.0019 3.34148 6.84187 3.5364 6.63001 3.65799C6.41815 3.77958 6.16911 3.81942 5.9299 3.76999L3.9999 3.38999C3.80445 3.36237 3.6052 3.39322 3.42724 3.47863C3.24929 3.56405 3.1006 3.70022 2.9999 3.86999L0.999896 7.32999C0.891056 7.51064 0.842118 7.72108 0.860079 7.93122C0.878039 8.14135 0.961979 8.34043 1.0999 8.49999L2.3699 9.93999C2.53022 10.1225 2.61863 10.3571 2.61863 10.6C2.61863 10.8429 2.53022 11.0775 2.3699 11.26L1.0999 12.7C0.961979 12.8596 0.878039 13.0586 0.860079 13.2688C0.842118 13.4789 0.891056 13.6893 0.999896 13.87L2.9999 17.33C3.10499 17.5125 3.26502 17.6571 3.45715 17.7433C3.64928 17.8295 3.86372 17.8528 4.0699 17.81L5.9499 17.43C6.18911 17.3806 6.43815 17.4204 6.65001 17.542C6.86187 17.6636 7.0219 17.8585 7.0999 18.09L7.7099 19.92C7.77948 20.127 7.91489 20.3055 8.09546 20.4283C8.27603 20.5511 8.49183 20.6114 8.7099 20.6H12.7099C12.9195 20.6005 13.1241 20.5352 13.2945 20.4132C13.465 20.2911 13.5928 20.1186 13.6599 19.92L14.2699 18.09C14.3479 17.8585 14.5079 17.6636 14.7198 17.542C14.9316 17.4204 15.1807 17.3806 15.4199 17.43L17.2999 17.81C17.5061 17.8528 17.7205 17.8295 17.9126 17.7433C18.1048 17.6571 18.2648 17.5125 18.3699 17.33L20.3699 13.87C20.4761 13.6873 20.5216 13.4757 20.5001 13.2655C20.4785 13.0553 20.3909 12.8573 20.2499 12.7L18.8999 11.26ZM17.4099 12.6L18.2099 13.5L16.9299 15.72L15.7499 15.48C15.0297 15.3328 14.2805 15.4551 13.6445 15.8238C13.0085 16.1925 12.53 16.7818 12.2999 17.48L11.9199 18.6H9.3599L8.9999 17.46C8.76975 16.7618 8.29128 16.1725 7.6553 15.8038C7.01932 15.4351 6.27012 15.3128 5.5499 15.46L4.3699 15.7L3.0699 13.49L3.8699 12.59C4.36185 12.04 4.63383 11.3279 4.63383 10.59C4.63383 9.85206 4.36185 9.14001 3.8699 8.58999L3.0699 7.68999L4.3499 5.48999L5.5299 5.72999C6.25012 5.87721 6.99932 5.75487 7.6353 5.38619C8.27128 5.01751 8.74975 4.42815 8.9799 3.72999L9.3599 2.59999H11.9199L12.2999 3.73999C12.53 4.43815 13.0085 5.02751 13.6445 5.39619C14.2805 5.76487 15.0297 5.88721 15.7499 5.73999L16.9299 5.49999L18.2099 7.71999L17.4099 8.61999C16.9235 9.16875 16.6549 9.87667 16.6549 10.61C16.6549 11.3433 16.9235 12.0512 17.4099 12.6ZM10.6399 6.59999C9.84877 6.59999 9.07541 6.83459 8.41761 7.27411C7.75982 7.71364 7.24713 8.33835 6.94438 9.06926C6.64163 9.80016 6.56241 10.6044 6.71675 11.3804C6.8711 12.1563 7.25206 12.869 7.81147 13.4284C8.37088 13.9878 9.08361 14.3688 9.85954 14.5231C10.6355 14.6775 11.4397 14.5983 12.1706 14.2955C12.9015 13.9928 13.5262 13.4801 13.9658 12.8223C14.4053 12.1645 14.6399 11.3911 14.6399 10.6C14.6399 9.53913 14.2185 8.52171 13.4683 7.77157C12.7182 7.02142 11.7008 6.59999 10.6399 6.59999ZM10.6399 12.6C10.2443 12.6 9.85765 12.4827 9.52876 12.2629C9.19986 12.0432 8.94351 11.7308 8.79214 11.3654C8.64076 10.9999 8.60116 10.5978 8.67833 10.2098C8.7555 9.82185 8.94598 9.46548 9.22568 9.18578C9.50539 8.90607 9.86175 8.71559 10.2497 8.63842C10.6377 8.56125 11.0398 8.60086 11.4053 8.75223C11.7707 8.90361 12.0831 9.15995 12.3028 9.48885C12.5226 9.81775 12.6399 10.2044 12.6399 10.6C12.6399 11.1304 12.4292 11.6391 12.0541 12.0142C11.679 12.3893 11.1703 12.6 10.6399 12.6Z" fill="#7F6DF2"/>
</svg>
